# xmcd
#
# Track frame offsets:
#	150
#	3582
#	25976
#	47363
#	68267
#	85515
#	98502
#	117354
#	139433
#	155737
#	173983
#	196415
#	206515
#	224935
#	240647
#	261920
#
# Disc length: 4000 seconds
#
# Revision: 0
# Processed by: cddbd v1.5.2PL0 Copyright (c) Steve Scherf et al.
# Submitted via: EasyCDDAExtractor 11.0.2.1
#
DISCID=df0f9e10
DTITLE=Promatic
DYEAR=2002
DGENRE=Rap
TTITLE0=The Adventure Begins
TTITLE1=Everyday  (Feat. Proof and Dogmatic)
TTITLE2=City Of Boom (Feat. Proof and Dogmatic)
TTITLE3=313000 (Feat. Dogmatic)
TTITLE4=Take No Shorts (Feat. Bakarak, JUS, Proof and Dogmatic)
TTITLE5=Feels Good (Feat. Proof, Dogmatic and Big Kullaz)
TTITLE6=Lesbian (Feat. Proof, Dogmatic and Kelly Nobles)
TTITLE7=Life (Feat. Proof, Dogmatic and King Gordy)
TTITLE8=Do What I Wanna Do (Feat. Proof and Dogmatic)
TTITLE9=Tear This Bitch Up (Feat. Proof and Dogmatic)
TTITLE10=Ecstacy (Feat. Proof, Dogmatic and Bizarre)
TTITLE11=Change Of Hoe (Feat. Dogmatic, Sicknotes, DOT and Alisha)
TTITLE12=Got Yo Bitch (Feat. Proof, Dogmatic and Lola Damone)
TTITLE13=Dirtiest Grimiest (Feat. Proof and Dogmatic)
TTITLE14=Long Road (Feat. Proof and Dogmatic)
TTITLE15=Graduation (Feat. Proof, Dogmatic and JUS)
EXTD=
EXTT0=
EXTT1=
EXTT2=
EXTT3=
EXTT4=
EXTT5=
EXTT6=
EXTT7=
EXTT8=
EXTT9=
EXTT10=
EXTT11=
EXTT12=
EXTT13=
EXTT14=
EXTT15=
PLAYORDER=
